<svg width="256" height="256" viewBox="0 0 256 256" fill="none" xmlns="http://www.w3.org/2000/svg">
  <defs>
    <linearGradient id="bg" x1="30" y1="24" x2="228" y2="236" gradientUnits="userSpaceOnUse">
      <stop stop-color="#0B1220"/>
      <stop offset="1" stop-color="#111C33"/>
    </linearGradient>
    <linearGradient id="leftGrad" x1="44" y1="56" x2="120" y2="192" gradientUnits="userSpaceOnUse">
      <stop stop-color="#2DD4BF"/>
      <stop offset="1" stop-color="#22D3EE"/>
    </linearGradient>
    <linearGradient id="rightGrad" x1="212" y1="56" x2="136" y2="192" gradientUnits="userSpaceOnUse">
      <stop stop-color="#818CF8"/>
      <stop offset="1" stop-color="#8B5CF6"/>
    </linearGradient>
    <linearGradient id="tile" x1="96" y1="96" x2="160" y2="160" gradientUnits="userSpaceOnUse">
      <stop stop-color="#F8FBFF"/>
      <stop offset="1" stop-color="#CFE2FF"/>
    </linearGradient>
  </defs>
  <rect x="16" y="16" width="224" height="224" rx="56" fill="url(#bg)"/>
  <rect x="17" y="17" width="222" height="222" rx="55" stroke="#E2E8F0" stroke-opacity="0.08" stroke-width="2"/>
  <path d="M54 62L109 128L54 194V160L84 128L54 96V62Z" fill="url(#leftGrad)"/>
  <path d="M202 62L147 128L202 194V160L172 128L202 96V62Z" fill="url(#rightGrad)"/>
  <rect x="96" y="96" width="64" height="64" rx="16" fill="url(#tile)"/>
  <rect x="96" y="96" width="64" height="64" rx="16" stroke="#FFFFFF" stroke-opacity="0.35" stroke-width="2"/>
  <rect x="111" y="111" width="15" height="15" rx="4.5" fill="#0F172A"/>
  <rect x="130" y="111" width="15" height="15" rx="4.5" fill="#0F172A" opacity="0.72"/>
  <rect x="111" y="130" width="15" height="15" rx="4.5" fill="#0F172A" opacity="0.72"/>
  <rect x="130" y="130" width="15" height="15" rx="4.5" fill="#0F172A"/>
</svg>